#N canvas 113 609 2560 1464 12;
#X declare -lib timbreIDLib;
#X obj 9 8 cnv 19 550 215 empty empty empty 20 12 0 12 #feffc6 #404040 0;
#X obj 867 263 cnv 19 550 325 empty empty empty 20 12 0 12 #c6ffc7 #404040 0;
#X obj 438 793 cnv 19 250 100 empty empty empty 20 12 0 12 #c6feff #404040 0;
#X obj 436 261 cnv 19 420 525 empty empty empty 20 12 0 12 #ffc7c6 #404040 0;
#X obj 837 -11 cnv 19 475 250 empty empty empty 20 12 0 12 #e3c6ff #404040 0;
#X obj 568 23 cnv 19 250 150 empty empty empty 20 12 0 12 #c6ffc7 #404040 0;
#X obj 10 228 cnv 19 410 560 empty empty empty 20 12 0 12 #ffe3c6 #404040 0;
#X floatatom 355 85 5 0 0 0 - - - 0;
#X msg 353 111 thresh -1 \$1;
#X floatatom 458 85 5 0 0 0 - - - 0;
#X msg 458 112 debounce 200;
#X obj 355 32 loadbang;
#X msg 1223 37 \; pd dsp \$1;
#X obj 1223 10 tgl 19 0 empty empty empty 17 7 0 10 #dfdfdf #000000 #000000 0 1;
#X obj 262 85 adc~ 1 2;
#X floatatom 613 418 5 0 0 0 - - - 0;
#N canvas 761 25 679 382 KuramotoAgent 0;
#X obj 41 142 - 0;
#X obj 40 183 expr sin(2 * 3.14159 * $f1) / (2 * 3.14159);
#X obj 88 80 inlet;
#X obj 41 80 inlet;
#X obj 533 78 inlet;
#X obj 331 80 inlet;
#X text 517 41 Intr freq;
#X text 331 43 Coupling;
#X text 48 294 Agent freq;
#X obj 426 80 inlet;
#X text 426 43 Coupling;
#X obj 133 225 expr sin(4 * 3.14159 * $f1) / (2 * 3.14159);
#X obj 39 262 expr $f3 + $f4 * $f1 + $f5 * $f2, f 56;
#X obj 37 322 outlet;
#X text 67 42 Inputs (phase);
#X obj 533 106 expr 1000/$f1;
#X connect 0 0 1 0;
#X connect 0 0 11 0;
#X connect 1 0 12 0;
#X connect 2 0 0 0;
#X connect 3 0 0 1;
#X connect 4 0 15 0;
#X connect 5 0 12 3;
#X connect 9 0 12 4;
#X connect 11 0 12 1;
#X connect 12 0 13 0;
#X connect 15 0 12 2;
#X restore 511 443 pd KuramotoAgent;
#X f 30;
#X floatatom 665 417 5 0 0 0 - - - 0;
#N canvas 810 -851 641 788 phasors 0;
#X obj 393 218 snapshot~;
#X obj 215 218 snapshot~;
#X obj 393 142 phasor~;
#X obj 214 142 phasor~;
#X obj 215 247 + 0;
#X obj 393 247 + 0;
#X obj 215 305 outlet;
#X obj 393 305 outlet;
#X obj 41 96 r reset;
#X msg 41 123 0;
#X obj 86 441 spigot;
#X obj 86 472 outlet;
#X text 60 498 Agent onset (bang);
#X obj 212 53 inlet;
#X text 154 32 Agent freq;
#X obj 393 276 expr modf($f1);
#X obj 215 276 expr modf($f1);
#X obj 87 406 cyclone/edge~;
#X obj 87 354 cyclone/delta~;
#X obj 87 380 cyclone/lessthan~ -0.5;
#X obj 116 175 t b b, f 11;
#X obj 115 94 r launchApp;
#X obj 391 53 inlet;
#X obj 483 53 inlet;
#X text 383 31 Player freq;
#X text 473 31 Player phase;
#X obj 235 407 r launchApp;
#X obj 302 53 inlet;
#X text 238 31 Agent phase offset;
#X floatatom 481 116 5 0 0 0 - - - 0;
#X obj 116 142 metro 15;
#X connect 0 0 5 0;
#X connect 1 0 4 0;
#X connect 2 0 0 0;
#X connect 3 0 1 0;
#X connect 3 0 18 0;
#X connect 4 0 16 0;
#X connect 5 0 15 0;
#X connect 8 0 9 0;
#X connect 9 0 2 0;
#X connect 9 0 3 0;
#X connect 9 0 30 0;
#X connect 10 0 11 0;
#X connect 13 0 3 0;
#X connect 15 0 7 0;
#X connect 16 0 6 0;
#X connect 17 0 10 0;
#X connect 18 0 19 0;
#X connect 19 0 17 0;
#X connect 20 0 1 0;
#X connect 20 1 0 0;
#X connect 21 0 30 0;
#X connect 22 0 2 0;
#X connect 23 0 2 1;
#X connect 23 0 29 0;
#X connect 26 0 10 1;
#X connect 27 0 4 1;
#X connect 30 0 20 0;
#X restore 459 393 pd phasors;
#X f 15;
#X obj 511 470 f;
#X obj 590 59 netreceive -u -b;
#X obj 590 84 oscparse;
#X obj 879 441 list prepend send;
#X obj 879 470 list trim;
#X obj 1131 3 tgl 19 0 empty empty empty 0 -10 0 12 #fcfcfc #000000 #000000 0 1;
#X obj 1069 51 s reset;
#X obj 1069 3 bng 19 250 50 0 empty empty empty 0 -10 0 12 #fcfcfc #000000 #000000;
#X text 594 393 Coupling;
#X text 661 393 Coupling2;
#X text 852 80 TEMPO;
#X floatatom 856 113 5 0 0 0 - - - 0;
#X obj 155 310 realtime;
#X obj 156 238 r launchApp;
#X obj 1131 51 s launchApp;
#X obj 156 275 sel 1;
#X obj 186 515 < 0;
#X obj 205 488 * 1.5;
#X obj 156 432 * 0;
#X obj 155 347 t f f;
#X obj 280 623 r reset;
#X obj 186 659 cyclone/counter 0 11;
#X obj 209 594 t b b;
#X obj 222 310 t b;
#X obj 186 544 sel 1 0;
#X obj 187 403 < 0;
#X obj 205 374 * 3;
#X obj 156 463 sel 0;
#X text 245 545 1 or 2 beats;
#X msg 28 720 3;
#X text 15 634 3-note pattern check;
#X obj 280 284 spigot;
#X obj 319 233 r reset;
#X msg 319 258 0;
#X text 331 287 First clap;
#X msg 1078 28 0;
#X obj 280 310 f;
#X obj 28 658 cyclone/counter 0 1;
#X obj 29 691 sel 1;
#X obj 856 139 s tempo;
#X obj 297 348 r tempo;
#X obj 726 416 r tempo;
#X obj 614 340 loadbang;
#X msg 665 365 0;
#N canvas 655 154 618 595 MvgAvg 0;
#X obj 120 117 timer 1 samp;
#X obj 223 85 r pd;
#X obj 223 117 route audio-dialog;
#X msg 223 141 \$17;
#X obj 264 55 loadbang;
#X obj 265 82 samplerate~;
#X obj 122 313 float;
#X obj 119 174 t f f;
#X obj 122 286 sel 1;
#X obj 173 175 r tempo;
#X msg 253 419 0;
#X obj 254 394 r reset;
#X obj 167 418 float;
#X obj 223 418 + 1;
#X obj 192 460 % 5;
#X obj 121 418 / 5;
#X obj 120 82 t b b;
#X obj 120 143 / 44100;
#X obj 119 27 inlet;
#X text 13 8 MOVING AVERAGE;
#X text 384 93 Detect samplerate change;
#X text 348 393 Counter to create circular array;
#X obj 119 526 outlet;
#X obj 121 262 < 1;
#X obj 172 202 / 1000;
#X obj 122 337 t b f b;
#X obj 172 230 * 1.5;
#X obj 5 76 r launchApp;
#X text 351 226 Assure IOI < 1.5 * tempoIOI;
#X obj 250 334 array define mean 5;
#X obj 122 380 array sum mean;
#X obj 141 494 array set mean;
#X obj 6 100 t b;
#X connect 0 0 17 0;
#X connect 1 0 2 0;
#X connect 2 0 3 0;
#X connect 3 0 17 1;
#X connect 4 0 5 0;
#X connect 5 0 17 1;
#X connect 6 0 25 0;
#X connect 7 0 23 0;
#X connect 7 1 6 1;
#X connect 8 0 6 0;
#X connect 9 0 24 0;
#X connect 10 0 12 1;
#X connect 11 0 10 0;
#X connect 12 0 13 0;
#X connect 12 0 14 0;
#X connect 13 0 12 1;
#X connect 14 0 31 1;
#X connect 15 0 22 0;
#X connect 16 0 0 0;
#X connect 16 1 0 1;
#X connect 17 0 7 0;
#X connect 18 0 16 0;
#X connect 23 0 8 0;
#X connect 24 0 26 0;
#X connect 25 0 30 0;
#X connect 25 1 31 0;
#X connect 25 2 12 0;
#X connect 26 0 23 1;
#X connect 27 0 32 0;
#X connect 30 0 15 0;
#X connect 32 0 0 0;
#X restore 511 261 pd MvgAvg;
#X msg 458 59 200;
#X obj 729 496 vsl 19 162 0 1 0 0 empty empty empty 0 -9 0 12 #fcfcfc #000000 #000000 0 1;
#X obj 762 496 vsl 19 162 0 1 0 0 empty empty empty 0 -9 0 12 #fcfcfc #000000 #000000 0 1;
#X obj 374 187 declare -lib timbreIDLib;
#X obj 263 162 bark~ 2048 128 0.5;
#N canvas 451 361 756 453 clapGenerator 0;
#X obj 53 213 >= 1;
#X obj 52 170 expr ($i1 == 0) + ($i1 == 1) + ($i1 == 2) + ($i1 == 4) + ($i1 == 5) + ($i1 == 7) + ($i1 == 9) + ($i1 == 10);
#X obj 53 99 metro 600;
#X obj 53 241 sel 1;
#X obj 53 128 cyclone/counter 0 11;
#X obj 56 38 inlet;
#X obj 175 38 inlet;
#X obj 51 272 outlet;
#X obj 121 38 inlet;
#X connect 0 0 3 0;
#X connect 1 0 0 0;
#X connect 2 0 4 0;
#X connect 3 0 7 0;
#X connect 4 0 1 0;
#X connect 5 0 2 0;
#X connect 6 0 2 1;
#X connect 8 0 4 2;
#X restore 138 117 pd clapGenerator;
#X obj 136 74 tgl 19 0 empty empty empty 0 -10 0 12 #fcfcfc #000000 #000000 0 1;
#X floatatom 207 85 5 0 0 0 - - - 0;
#X obj 207 35 loadbang;
#X obj 206 206 t b;
#X obj 136 20 r reset;
#X msg 136 45 0;
#X obj 175 73 bng 19 250 50 0 empty empty empty 0 -10 0 12 #fcfcfc #000000 #000000;
#X obj 511 339 expr 1/$f1;
#X obj 442 739 >= 1;
#X obj 441 696 expr ($i1 == 0) + ($i1 == 1) + ($i1 == 2) + ($i1 == 4) + ($i1 == 5) + ($i1 == 7) + ($i1 == 9) + ($i1 == 10);
#X obj 442 767 sel 1;
#X obj 554 478 r reset;
#X obj 458 507 cyclone/counter 0 11;
#N canvas 151 224 894 599 audioGenerator 0;
#X obj 75 407 *~;
#X obj 433 181 soundfiler;
#X obj 77 153 tabplay~ sample-1-1;
#X obj 433 212 array define sample-1-1;
#X obj 78 461 dac~ 1 2, f 9;
#X obj 357 298 line~;
#X obj 357 272 pack 0 50;
#X obj 357 246 / 100;
#X obj 432 59 loadbang;
#X obj 95 232 line~;
#X obj 75 302 *~;
#X obj 130 203 pack 0 5;
#X obj 77 127 t b b b;
#X obj 100 179 pack 1 50;
#X obj 434 236 array define sample-1-2;
#X obj 78 52 inlet;
#X obj 222 52 inlet;
#X obj 358 52 inlet;
#X obj 238 233 line~;
#X obj 273 203 pack 0 5;
#X obj 223 128 t b b b;
#X obj 243 180 pack 1 50;
#X obj 223 154 tabplay~ sample-1-2;
#X obj 220 298 *~;
#X obj 75 373 +~;
#X obj 262 397 tabread;
#X msg 432 90 read -resize Clap1.wav sample-1-2;
#X obj 75 336 *~ 0.7;
#X msg 500 145 read -resize EweSakara.wav sample-1-1;
#X msg 457 120 read -resize Clap2.wav sample-1-1;
#X obj 133 83 bng 19 250 50 0 empty empty empty 0 -10 0 12 #fcfcfc #000000 #000000;
#X connect 0 0 4 0;
#X connect 0 0 4 1;
#X connect 2 0 10 0;
#X connect 5 0 0 1;
#X connect 6 0 5 0;
#X connect 7 0 6 0;
#X connect 8 0 26 0;
#X connect 8 0 28 0;
#X connect 9 0 10 1;
#X connect 10 0 27 0;
#X connect 11 0 9 0;
#X connect 12 0 2 0;
#X connect 12 1 13 0;
#X connect 12 2 11 0;
#X connect 13 0 9 0;
#X connect 15 0 12 0;
#X connect 16 0 20 0;
#X connect 17 0 7 0;
#X connect 18 0 23 1;
#X connect 19 0 18 0;
#X connect 20 0 22 0;
#X connect 20 1 21 0;
#X connect 20 2 19 0;
#X connect 21 0 18 0;
#X connect 22 0 23 0;
#X connect 23 0 24 1;
#X connect 24 0 0 0;
#X connect 26 0 1 0;
#X connect 27 0 24 0;
#X connect 28 0 1 0;
#X connect 29 0 1 0;
#X connect 30 0 20 0;
#X restore 467 864 pd audioGenerator;
#X floatatom 582 836 5 0 100 0 - - - 0;
#X msg 615 810 0;
#X msg 582 811 40;
#X msg 207 60 300;
#X obj 720 291 * 1000;
#X obj 240 744 +;
#X obj 239 717 spigot;
#X msg 277 692 0;
#X msg 338 729 1;
#X obj 338 680 + 1;
#X obj 478 588 realtime;
#X obj 524 535 r launchApp;
#X obj 477 560 t b b;
#X obj 587 564 r tempo;
#X obj 720 364 f;
#X obj 441 669 f;
#X obj 478 643 b;
#X obj 478 616 > 0;
#X obj 588 589 * 0.75;
#X obj 925 112 tgl 19 0 empty empty empty 0 -10 0 12 #fcfcfc #000000 #000000 0 1;
#X obj 926 139 s adaptive;
#X obj 720 337 spigot;
#X obj 758 310 r adaptive;
#X obj 1008 340 oscformat speed;
#X obj 880 340 oscformat phase;
#X msg 1135 445 disconnect;
#X obj 879 292 t f b;
#X obj 1008 314 / 3.3333;
#X obj 1292 319 oscformat launch;
#X msg 590 33 listen 6161;
#X obj 588 133 route onsetAvatar;
#X obj 589 108 list trim;
#X obj 338 704 t b f;
#X obj 880 316 / 12;
#X obj 1292 291 r launchApp;
#X obj 14 144 notein;
#X obj 13 195 sel 1;
#X obj 13 169 expr ($f1>=60)*($f1<=74)*($f2>1);
#X msg 614 366 3;
#X floatatom 1012 115 5 0 1 0 - - - 0;
#X floatatom 1118 116 8 -0.09 0.09 0 - - - 0;
#X text 890 163 BEAT;
#X text 1015 75 PHASE OFFSET;
#X text 1114 75 CIRCLE OFFSET;
#X text 1117 90 (-0.09 \, 0.09);
#X text 1031 90 (0 \, 1);
#X obj 1012 140 s phaseOffset;
#X obj 1119 141 s circleOffset;
#X msg 856 40 300;
#X msg 894 40 0;
#X msg 932 42 0.95;
#X obj 445 364 r phaseOffset;
#X obj 1191 371 r circleOffset;
#X obj 1190 395 oscformat circleOffset;
#X obj 1154 28 sel 1;
#X text 933 74 TEMPO;
#X text 929 92 ADAPTIVE;
#X obj 1221 97 b;
#X obj 338 658 r beat;
#X obj 855 12 loadbang;
#X msg 976 42 0.03;
#X obj 523 560 b;
#X obj 950 112 f;
#X obj 880 375 r activatePlayers;
#X obj 1017 206 s activatePlayers;
#X obj 1016 181 tgl 19 0 empty empty empty 0 -10 0 12 #fcfcfc #000000 #000000 0 1;
#X obj 879 398 oscformat activatePlayers;
#X msg 1139 533 connect 10.121.105.116 1234;
#X obj 1068 397 oscformat alpha;
#N canvas 879 172 1304 1044 asyncAlpha 1;
#X obj 19 99 realtime;
#X obj 104 72 spigot;
#X obj 104 45 b;
#X obj 18 45 r launchApp;
#X obj 19 71 b;
#X obj 23 262 < 150;
#X obj 80 212 r tempo;
#X obj 80 235 / 2;
#X obj 21 319 f;
#X obj 103 13 inlet;
#X obj 21 167 -;
#X obj 333 124 loadbang;
#X msg 82 145 -999;
#X obj 19 126 t f f;
#X obj 23 226 t f f;
#X obj 22 289 sel 1;
#X msg 510 316 1;
#X obj 23 381 f;
#X obj 22 452 outlet;
#X obj 149 10 inlet;
#X obj 372 148 r reset;
#X text 36 192 IOI (ms);
#X obj 24 349 expr max(min($f2 + ($f1 < 40) * (- 0.5) + ($f1 > 40) * (1.0) \, 1) \, -0.5), f 74;
#X obj 510 284 r asyncAlpha;
#X connect 0 0 13 0;
#X connect 1 0 0 1;
#X connect 2 0 1 0;
#X connect 3 0 4 0;
#X connect 4 0 0 0;
#X connect 5 0 15 0;
#X connect 6 0 7 0;
#X connect 7 0 5 1;
#X connect 8 0 22 0;
#X connect 9 0 2 0;
#X connect 10 0 14 0;
#X connect 11 0 12 0;
#X connect 11 0 16 0;
#X connect 12 0 10 1;
#X connect 13 0 10 1;
#X connect 13 1 10 0;
#X connect 14 0 5 0;
#X connect 14 1 8 1;
#X connect 15 0 8 0;
#X connect 16 0 17 0;
#X connect 16 0 22 1;
#X connect 17 0 18 0;
#X connect 17 0 22 1;
#X connect 19 0 1 1;
#X connect 20 0 16 0;
#X connect 20 0 12 0;
#X connect 22 0 17 0;
#X connect 23 0 16 0;
#X restore 182 822 pd asyncAlpha;
#X obj 1159 179 tgl 19 0 empty empty empty 0 -10 0 12 #fcfcfc #000000 #000000 0 1;
#X obj 1160 204 s asyncAlpha;
#X obj 269 794 r asyncAlpha;
#X obj 182 859 s alpha;
#X obj 1068 372 r alpha;
#X floatatom 1008 290 5 0 0 0 - - - 0;
#X floatatom 879 268 5 0 0 0 - - - 0;
#X floatatom 923 187 5 0 11 0 - - - 0;
#X msg 1138 498 connect 192.168.0.151 1234;
#X msg 1138 474 connect 192.168.0.186 1234;
#X msg 929 534 connect 192.168.0.255 1234;
#X floatatom 856 186 5 0 11 0 - - - 0;
#X text 1334 497 player 2;
#X text 1334 473 player 1;
#X msg 932 563 connect 127.0.0.1 1234;
#X obj 331 194 bng 19 250 50 0 empty empty empty 0 -10 0 12 #fcfcfc #000000 #000000;
#X obj 255 193 spigot;
#X obj 308 193 tgl 19 0 empty empty empty 0 -10 0 12 #fcfcfc #000000 #000000 0 1;
#X obj 466 833 spigot;
#X obj 504 802 tgl 19 0 empty empty empty 0 -10 0 12 #fcfcfc #000000 #000000 0 1;
#X msg 1142 561 connect 10.121.216.81 1234;
#X obj 879 499 netsend -u -b;
#X obj 855 212 s beat1;
#X obj 922 213 s beat2;
#X obj 1137 294 oscformat beat_p1;
#X obj 1138 317 r beat2;
#X obj 1137 269 r beat1;
#X obj 1138 342 oscformat beat_p2;
#X msg 355 59 25;
#X floatatom 258 860 5 0 0 0 - - - 0;
#X text 920 606 This patch aligns a user's performance of Steve Reich's Clapping Music with an agent \, creates audio (blue) \, and controls a Unity program over OSC (green). It takes in tapping onsets through a MIDI interface \, microphone \, or clapGenerator (yellow) and verifies they correspond to Steve Reich's Clapping Music's 8/12 note pattern (orange). It aligns the calculated phase in the pattern to an oscillator (KuramotoAgent) that triggers its own respective 8/12 note pattern (red). Several options allow the user to set specific parameters in both the Pd patch and Unity program (purple). Specifically \, a user can set the tempo \, make the agent tempo-adaptive \, set a fixed phase-offset to the agent with respect to the user \, set a fixed offset to the drum circle visualizations in Unity \, specify a multiple of 1/12 beat offset to player 1 or 2 (set as a parameter in Unity) \, activate more virtual agent visualization \, or enable transparency adaptive visualization based on a player's performance i.e. asynchrony.;
#X text 1343 563 player 2;
#X text 1343 539 player 1;
#X obj 601 266 r tempo;
#X obj 600 293 / 1000;
#X connect 7 0 8 0;
#X connect 8 0 68 0;
#X connect 9 0 10 0;
#X connect 10 0 68 0;
#X connect 11 0 182 0;
#X connect 11 0 64 0;
#X connect 13 0 12 0;
#X connect 14 0 68 0;
#X connect 14 1 68 0;
#X connect 15 0 16 2;
#X connect 16 0 19 0;
#X connect 17 0 16 3;
#X connect 18 0 82 0;
#X connect 18 1 16 0;
#X connect 18 1 65 0;
#X connect 18 2 16 1;
#X connect 18 2 66 0;
#X connect 19 0 18 0;
#X connect 19 0 111 0;
#X connect 20 0 21 0;
#X connect 21 0 115 0;
#X connect 22 0 23 0;
#X connect 23 0 175 0;
#X connect 24 0 33 0;
#X connect 24 0 138 0;
#X connect 26 0 25 0;
#X connect 26 0 54 0;
#X connect 30 0 58 0;
#X connect 31 0 42 0;
#X connect 31 0 38 0;
#X connect 32 0 34 0;
#X connect 32 0 50 1;
#X connect 34 0 31 0;
#X connect 35 0 43 0;
#X connect 36 0 35 1;
#X connect 37 0 46 0;
#X connect 38 0 37 0;
#X connect 38 1 44 0;
#X connect 39 0 56 2;
#X connect 39 0 91 0;
#X connect 39 0 40 2;
#X connect 40 0 18 3;
#X connect 40 0 90 0;
#X connect 40 0 153 0;
#X connect 40 0 172 0;
#X connect 41 0 40 0;
#X connect 41 1 40 0;
#X connect 42 0 31 0;
#X connect 43 0 56 0;
#X connect 43 0 40 0;
#X connect 43 1 41 0;
#X connect 43 1 56 2;
#X connect 44 0 37 1;
#X connect 45 0 44 1;
#X connect 46 1 35 0;
#X connect 46 1 63 0;
#X connect 48 0 40 3;
#X connect 50 0 52 0;
#X connect 50 0 55 0;
#X connect 51 0 52 0;
#X connect 52 0 50 1;
#X connect 54 0 24 0;
#X connect 55 0 38 0;
#X connect 56 0 57 0;
#X connect 57 0 48 0;
#X connect 59 0 36 0;
#X connect 59 0 45 0;
#X connect 59 0 55 1;
#X connect 60 0 16 4;
#X connect 61 0 122 0;
#X connect 61 0 62 0;
#X connect 62 0 17 0;
#X connect 63 0 77 0;
#X connect 63 0 88 0;
#X connect 64 0 9 0;
#X connect 68 0 169 0;
#X connect 68 0 170 0;
#X connect 69 0 73 0;
#X connect 70 0 69 0;
#X connect 71 0 69 2;
#X connect 72 0 87 0;
#X connect 73 0 31 1;
#X connect 73 0 50 0;
#X connect 74 0 75 0;
#X connect 75 0 70 0;
#X connect 75 0 76 0;
#X connect 76 0 69 1;
#X connect 77 0 18 2;
#X connect 78 0 80 0;
#X connect 79 0 78 0;
#X connect 80 0 83 1;
#X connect 80 0 153 0;
#X connect 81 0 82 2;
#X connect 82 0 99 1;
#X connect 82 0 96 0;
#X connect 84 0 83 2;
#X connect 85 0 84 0;
#X connect 86 0 84 0;
#X connect 87 0 71 0;
#X connect 88 0 105 0;
#X connect 89 0 82 2;
#X connect 90 0 89 0;
#X connect 90 0 91 0;
#X connect 91 0 90 1;
#X connect 92 0 90 1;
#X connect 93 0 116 0;
#X connect 94 0 101 0;
#X connect 95 0 145 0;
#X connect 96 0 94 0;
#X connect 96 1 94 1;
#X connect 97 0 102 0;
#X connect 98 0 16 4;
#X connect 98 0 102 0;
#X connect 99 0 79 0;
#X connect 99 0 110 0;
#X connect 100 0 99 0;
#X connect 101 0 100 0;
#X connect 102 0 101 1;
#X connect 103 0 146 0;
#X connect 105 0 98 0;
#X connect 106 0 105 1;
#X connect 107 0 22 0;
#X connect 108 0 22 0;
#X connect 109 0 175 0;
#X connect 110 0 117 0;
#X connect 111 0 107 0;
#X connect 112 0 22 0;
#X connect 113 0 20 0;
#X connect 115 0 114 0;
#X connect 116 0 92 0;
#X connect 116 1 89 1;
#X connect 117 0 108 0;
#X connect 118 0 112 0;
#X connect 119 0 121 0;
#X connect 119 1 121 1;
#X connect 120 0 73 0;
#X connect 121 0 120 0;
#X connect 122 0 15 0;
#X connect 123 0 130 0;
#X connect 124 0 131 0;
#X connect 132 0 30 0;
#X connect 133 0 103 0;
#X connect 133 0 161 0;
#X connect 133 0 165 0;
#X connect 134 0 123 0;
#X connect 135 0 18 1;
#X connect 136 0 137 0;
#X connect 137 0 22 0;
#X connect 138 0 141 0;
#X connect 141 0 30 0;
#X connect 141 0 123 0;
#X connect 141 0 124 0;
#X connect 141 0 146 0;
#X connect 141 0 161 0;
#X connect 141 0 165 0;
#X connect 142 0 93 0;
#X connect 143 0 132 0;
#X connect 143 0 133 0;
#X connect 143 0 134 0;
#X connect 143 0 144 0;
#X connect 144 0 124 0;
#X connect 145 0 94 0;
#X connect 146 0 104 0;
#X connect 147 0 150 0;
#X connect 149 0 148 0;
#X connect 150 0 22 0;
#X connect 151 0 175 0;
#X connect 152 0 175 0;
#X connect 153 0 157 0;
#X connect 153 0 183 0;
#X connect 154 0 155 0;
#X connect 156 0 153 1;
#X connect 158 0 152 0;
#X connect 159 0 111 0;
#X connect 160 0 110 0;
#X connect 161 0 177 0;
#X connect 162 0 175 0;
#X connect 163 0 175 0;
#X connect 164 0 175 0;
#X connect 165 0 176 0;
#X connect 168 0 175 0;
#X connect 170 0 73 0;
#X connect 171 0 170 1;
#X connect 172 0 83 0;
#X connect 173 0 172 1;
#X connect 174 0 175 0;
#X connect 178 0 22 0;
#X connect 179 0 181 0;
#X connect 180 0 178 0;
#X connect 181 0 22 0;
#X connect 182 0 7 0;
#X connect 187 0 188 0;
#X connect 188 0 77 0;
